<svg xmlns="http://www.w3.org/2000/svg" style="display:none">
  <symbol id="icon-phone" viewBox="0 0 24 24">
    <path d="M6.6 10.2a15.6 15.6 0 006.2 6.2l1.8-1.8a1 1 0 011.1-.2c1.2.5 2.6.8 4 .8a1 1 0 011 1v3a1 1 0 01-1 1C10.7 20 4 13.3 4 4a1 1 0 011-1h3a1 1 0 011 1c0 1.4.3 2.8.8 4 .2.4 0 .9-.2 1.1L6.6 10.2z"/>
  </symbol>

  <symbol id="icon-envelope" viewBox="0 0 24 24">
    <path d="M2 6v12a2 2 0 002 2h16a2 2 0 002-2V6l-10 6L2 6zM22 6l-10 6L2 6"/>
  </symbol>

  <symbol id="icon-linkedin" viewBox="0 0 24 24">
    <rect x="2" y="3" width="20" height="18" rx="2" ry="2"/>
    <path d="M6 9h2v8H6zM7 6a1 1 0 110-2 1 1 0 010 2zM11 9h2v1h.1a2.2 2.2 0 012-1.1c2 0 2.4 1.3 2.4 3V17h-2v-4c0-1-.1-2.2-1.3-2.2-1.3 0-1.5 1-1.5 2V17h-2z"/>
  </symbol>

  <symbol id="icon-python" viewBox="0 0 24 24">
    <rect x="2" y="2" width="20" height="20" rx="4" ry="4"/>
    <text x="12" y="16" font-size="8" text-anchor="middle" fill="#fff" font-family="Arial">Py</text>
  </symbol>

  <symbol id="icon-database" viewBox="0 0 24 24">
    <ellipse cx="12" cy="5" rx="8" ry="3"/>
    <path d="M4 5v6c0 1.7 3.6 3 8 3s8-1.3 8-3V5"/>
  </symbol>

  <symbol id="icon-chart" viewBox="0 0 24 24">
    <rect x="3" y="12" width="3" height="9"/>
    <rect x="10.5" y="8" width="3" height="13"/>
    <rect x="18" y="4" width="3" height="17"/>
  </symbol>

  <symbol id="icon-briefcase" viewBox="0 0 24 24">
    <rect x="3" y="7" width="18" height="12" rx="2" ry="2"/>
    <path d="M8 7V5a2 2 0 012-2h4a2 2 0 012 2v2"/>
  </symbol>

  <symbol id="icon-beer" viewBox="0 0 24 24">
    <rect x="6" y="4" width="8" height="12" rx="1" ry="1"/>
    <path d="M8 4a3 3 0 016 0"/>
    <rect x="15" y="10" width="4" height="8" rx="1" ry="1"/>
  </symbol>

  <symbol id="icon-wine" viewBox="0 0 24 24">
    <path d="M7 4h10l-3 6a4 4 0 01-8 0L7 4z"/>
    <path d="M12 14v6"/>
  </symbol>
</svg>
